<?xml version="1.0" encoding="UTF-8"?>
<svg xmlns="http://www.w3.org/2000/svg" xmlns:xlink="http://www.w3.org/1999/xlink" width="320pt" height="256pt" viewBox="0 0 320 256" version="1.1">
<g id="surface1">
<path style=" stroke:none;fill-rule:nonzero;fill:rgb(0%,0%,0%);fill-opacity:1;" d="M 48 112 C 65.648438 112 80 97.648438 80 80 C 80 62.351562 65.648438 48 48 48 C 30.351562 48 16 62.351562 16 80 C 16 97.648438 30.351562 112 48 112 Z M 272 112 C 289.648438 112 304 97.648438 304 80 C 304 62.351562 289.648438 48 272 48 C 254.351562 48 240 62.351562 240 80 C 240 97.648438 254.351562 112 272 112 Z M 288 128 L 256 128 C 247.199219 128 239.25 131.550781 233.449219 137.300781 C 253.601562 148.351562 267.898438 168.300781 271 192 L 304 192 C 312.851562 192 320 184.851562 320 176 L 320 160 C 320 142.351562 305.648438 128 288 128 Z M 160 128 C 190.949219 128 216 102.949219 216 72 C 216 41.050781 190.949219 16 160 16 C 129.050781 16 104 41.050781 104 72 C 104 102.949219 129.050781 128 160 128 Z M 198.398438 144 L 194.25 144 C 183.851562 149 172.300781 152 160 152 C 147.699219 152 136.199219 149 125.75 144 L 121.601562 144 C 89.800781 144 64 169.800781 64 201.601562 L 64 216 C 64 229.25 74.75 240 88 240 L 232 240 C 245.25 240 256 229.25 256 216 L 256 201.601562 C 256 169.800781 230.199219 144 198.398438 144 Z M 86.550781 137.300781 C 80.75 131.550781 72.800781 128 64 128 L 32 128 C 14.351562 128 0 142.351562 0 160 L 0 176 C 0 184.851562 7.148438 192 16 192 L 48.949219 192 C 52.101562 168.300781 66.398438 148.351562 86.550781 137.300781 Z M 86.550781 137.300781 "/>
</g>
</svg>
